<svg width="30" height="32" viewBox="0 0 30 32" fill="currentColor" xmlns="http://www.w3.org/2000/svg">
<path d="M27.5 19.6924H16.25V12.1833C17.7676 11.8783 19.116 11.0293 20.034 9.80101C20.952 8.57271 21.374 7.05256 21.2184 5.53528C21.0627 4.018 20.3404 2.61168 19.1914 1.58896C18.0425 0.566247 16.5488 0 15 0C13.4512 0 11.9575 0.566247 10.8086 1.58896C9.65964 2.61168 8.93732 4.018 8.78165 5.53528C8.62598 7.05256 9.04804 8.57271 9.966 9.80101C10.884 11.0293 12.2324 11.8783 13.75 12.1833V19.6924H2.5C1.83696 19.6924 1.20107 19.9518 0.732233 20.4134C0.263392 20.875 0 21.5011 0 22.1539V29.5385C0 30.1913 0.263392 30.8174 0.732233 31.279C1.20107 31.7407 1.83696 32 2.5 32H27.5C28.163 32 28.7989 31.7407 29.2678 31.279C29.7366 30.8174 30 30.1913 30 29.5385V22.1539C30 21.5011 29.7366 20.875 29.2678 20.4134C28.7989 19.9518 28.163 19.6924 27.5 19.6924ZM11.25 6.15407C11.25 5.42381 11.4699 4.70995 11.882 4.10276C12.294 3.49556 12.8797 3.02232 13.5649 2.74286C14.2502 2.4634 15.0042 2.39028 15.7316 2.53275C16.459 2.67521 17.1272 3.02687 17.6517 3.54324C18.1761 4.05962 18.5333 4.71752 18.6779 5.43375C18.8226 6.14998 18.7484 6.89237 18.4645 7.56705C18.1807 8.24172 17.7001 8.81838 17.0834 9.22409C16.4667 9.6298 15.7417 9.84635 15 9.84635C14.0054 9.84635 13.0516 9.45734 12.3483 8.76491C11.6451 8.07247 11.25 7.13333 11.25 6.15407ZM27.5 29.5385H2.5V22.1539H27.5V29.5385ZM21.25 14.7694H26.25C26.5815 14.7694 26.8995 14.8991 27.1339 15.1299C27.3683 15.3607 27.5 15.6737 27.5 16.0001C27.5 16.3266 27.3683 16.6396 27.1339 16.8704C26.8995 17.1012 26.5815 17.2309 26.25 17.2309H21.25C20.9185 17.2309 20.6005 17.1012 20.3661 16.8704C20.1317 16.6396 20 16.3266 20 16.0001C20 15.6737 20.1317 15.3607 20.3661 15.1299C20.6005 14.8991 20.9185 14.7694 21.25 14.7694Z" fill="black"/>
</svg>
