<svg width="85" height="120" viewBox="0 0 85 120" fill="none" xmlns="http://www.w3.org/2000/svg">
<path d="M45.4492 27.2345V111.36H0.5V27.2345H45.4492Z" fill="white" fill-opacity="0.870588" stroke="#1E1E1E"/>
<path d="M16.7263 84.3085C15.1272 85.9132 14.1382 88.13 14.1382 90.5786C14.1382 95.4759 18.0944 99.4459 22.9746 99.4459C27.8548 99.4459 31.811 95.4759 31.811 90.5786C31.811 88.13 30.8219 85.9132 29.2228 84.3085" stroke="#1E1E1E" stroke-width="2" stroke-linecap="round"/>
<path d="M22.9746 85.2583V79.9379" stroke="#1E1E1E" stroke-width="2" stroke-linecap="square"/>
<path d="M36.613 34.3282V42.1954H7.56909V34.3282H36.613Z" fill="white" fill-opacity="0.870588" stroke="#1E1E1E"/>
<path d="M36.613 46.7424V54.6096H7.56909V46.7424H36.613Z" fill="white" fill-opacity="0.870588" stroke="#1E1E1E"/>
<path d="M65.7793 9.5L45.7676 26.2344H1.37695L21.3896 9.5H65.7793Z" fill="white" fill-opacity="0.870588" stroke="#1E1E1E"/>
<path d="M66.6562 93.8916L46.4492 110.79V26.9678L66.6562 10.0703V93.8916Z" fill="white" fill-opacity="0.870588" stroke="#1E1E1E"/>
</svg>
