<svg width="97" height="120" viewBox="0 0 97 120" fill="currentColor" xmlns="http://www.w3.org/2000/svg">
<path d="M19.7808 32.7369C19.7808 31.6877 20.1976 30.6814 20.9395 29.9395C21.6814 29.1976 22.6877 28.7808 23.7369 28.7808H55.3862C56.4354 28.7808 57.4417 29.1976 58.1836 29.9395C58.9255 30.6814 59.3423 31.6877 59.3423 32.7369C59.3423 33.7862 58.9255 34.7924 58.1836 35.5343C57.4417 36.2763 56.4354 36.6931 55.3862 36.6931H23.7369C22.6877 36.6931 21.6814 36.2763 20.9395 35.5343C20.1976 34.7924 19.7808 33.7862 19.7808 32.7369ZM23.7369 52.5177H55.3862C56.4354 52.5177 57.4417 52.1009 58.1836 51.359C58.9255 50.617 59.3423 49.6108 59.3423 48.5615C59.3423 47.5123 58.9255 46.506 58.1836 45.7641C57.4417 45.0222 56.4354 44.6054 55.3862 44.6054H23.7369C22.6877 44.6054 21.6814 45.0222 20.9395 45.7641C20.1976 46.506 19.7808 47.5123 19.7808 48.5615C19.7808 49.6108 20.1976 50.617 20.9395 51.359C21.6814 52.1009 22.6877 52.5177 23.7369 52.5177ZM79.1231 16.9123V103.948C79.1231 106.046 78.2895 108.059 76.8056 109.543C75.3218 111.026 73.3092 111.86 71.2108 111.86H7.91231C5.81383 111.86 3.80131 111.026 2.31746 109.543C0.833615 108.059 0 106.046 0 103.948V16.9123C0 14.8138 0.833615 12.8013 2.31746 11.3175C3.80131 9.83362 5.81383 9 7.91231 9H71.2108C73.3092 9 75.3218 9.83362 76.8056 11.3175C78.2895 12.8013 79.1231 14.8138 79.1231 16.9123ZM71.2108 16.9123H7.91231V103.948H71.2108V16.9123ZM39.5615 80.2108C38.3879 80.2108 37.2405 80.5588 36.2647 81.2109C35.2888 81.8629 34.5282 82.7897 34.079 83.8741C33.6299 84.9584 33.5124 86.1516 33.7413 87.3027C33.9703 88.4538 34.5355 89.5112 35.3654 90.3411C36.1953 91.171 37.2527 91.7362 38.4038 91.9652C39.555 92.1942 40.7481 92.0767 41.8325 91.6275C42.9168 91.1784 43.8436 90.4178 44.4957 89.4419C45.1477 88.466 45.4958 87.3187 45.4958 86.145C45.4958 84.5711 44.8706 83.0618 43.7577 81.9489C42.6448 80.836 41.1354 80.2108 39.5615 80.2108Z"/>
</svg>
