<svg width="80" height="103" viewBox="0 0 80 103" fill="none" xmlns="http://www.w3.org/2000/svg">
<path d="M19.7808 23.7369C19.7808 22.6877 20.1976 21.6814 20.9395 20.9395C21.6814 20.1976 22.6877 19.7808 23.7369 19.7808H55.3862C56.4354 19.7808 57.4417 20.1976 58.1836 20.9395C58.9255 21.6814 59.3423 22.6877 59.3423 23.7369C59.3423 24.7862 58.9255 25.7924 58.1836 26.5343C57.4417 27.2763 56.4354 27.6931 55.3862 27.6931H23.7369C22.6877 27.6931 21.6814 27.2763 20.9395 26.5343C20.1976 25.7924 19.7808 24.7862 19.7808 23.7369ZM23.7369 43.5177H55.3862C56.4354 43.5177 57.4417 43.1009 58.1836 42.359C58.9255 41.617 59.3423 40.6108 59.3423 39.5615C59.3423 38.5123 58.9255 37.506 58.1836 36.7641C57.4417 36.0222 56.4354 35.6054 55.3862 35.6054H23.7369C22.6877 35.6054 21.6814 36.0222 20.9395 36.7641C20.1976 37.506 19.7808 38.5123 19.7808 39.5615C19.7808 40.6108 20.1976 41.617 20.9395 42.359C21.6814 43.1009 22.6877 43.5177 23.7369 43.5177ZM79.1231 7.91231V94.9477C79.1231 97.0462 78.2895 99.0587 76.8056 100.543C75.3218 102.026 73.3092 102.86 71.2108 102.86H7.91231C5.81383 102.86 3.80131 102.026 2.31746 100.543C0.833616 99.0587 0 97.0462 0 94.9477V7.91231C0 5.81383 0.833616 3.80131 2.31746 2.31746C3.80131 0.833616 5.81383 0 7.91231 0H71.2108C73.3092 0 75.3218 0.833616 76.8056 2.31746C78.2895 3.80131 79.1231 5.81383 79.1231 7.91231ZM71.2108 7.91231H7.91231V94.9477H71.2108V7.91231ZM39.5615 71.2108C38.3879 71.2108 37.2405 71.5588 36.2647 72.2109C35.2888 72.8629 34.5282 73.7897 34.079 74.8741C33.6299 75.9584 33.5124 77.1516 33.7413 78.3027C33.9703 79.4538 34.5355 80.5112 35.3654 81.3411C36.1953 82.1711 37.2527 82.7362 38.4038 82.9652C39.555 83.1942 40.7481 83.0767 41.8325 82.6275C42.9168 82.1784 43.8436 81.4178 44.4957 80.4419C45.1477 79.466 45.4958 78.3187 45.4958 77.145C45.4958 75.5711 44.8706 74.0618 43.7577 72.9489C42.6448 71.836 41.1354 71.2108 39.5615 71.2108Z" fill="#CCCCCC"/>
</svg>
