<svg width="120" height="120" viewBox="0 0 120 120" fill="currentColor" xmlns="http://www.w3.org/2000/svg">
<g clip-path="url(#clip0_25_2)">
<path d="M2.59185 82.3305C-1.89929 85.4756 -1.06772 90.894 9.17883 94.2821C19.4254 97.6706 31.3351 98.3711 41.8144 96.4838C42.4132 96.4838 41.5151 96.4838 41.8144 96.4838V85.7902L31.6345 89.25C27.7422 90.5081 23.8499 90.8227 19.9576 89.8789C16.9635 88.9354 17.5623 87.0484 21.1552 85.4756L41.8144 77.9272V66.2903L13.0712 76.6695C9.47827 77.9272 5.88536 79.8146 2.59185 82.3305ZM72.0547 35.1532V65.6614C84.3304 71.9516 93.9116 65.6614 93.9116 49.3065C93.9116 32.6371 88.2229 25.0887 71.7555 19.1129C63.0724 15.9677 54.0904 13.1371 45.108 11.25V102.145L66.0667 108.75V32.3226C66.0667 28.8629 66.0667 26.3468 68.4619 27.2903C71.7555 28.2339 72.0547 31.6935 72.0547 35.1532ZM110.978 75.0968C102.295 71.9516 93.0135 70.6935 84.0311 71.637C79.0421 71.9648 74.3602 73.4509 69.6596 75.0968V87.363L89.121 79.8146C93.0135 78.5565 96.9056 78.2419 100.798 79.1854C103.792 80.1289 103.193 82.0163 99.6004 83.5886L69.6596 95.2256V107.177L110.978 91.137C113.972 89.8789 116.667 88.3065 119.062 85.7902C121.158 82.6451 120.259 78.2419 110.978 75.0968Z"/>
</g>
<defs>
<clipPath id="clip0_25_2">
<rect width="120" height="120" fill="white"/>
</clipPath>
</defs>
</svg>
