<svg width="153" height="103" viewBox="0 0 153 103" fill="none" xmlns="http://www.w3.org/2000/svg">
<g clip-path="url(#clip0_25_2)">
<path fill-rule="evenodd" clip-rule="evenodd" d="M73.039 21.3897L72.9442 102.86L51.1213 95.7662V0L78.9821 7.36455C96.8113 12.1569 107.736 21.4709 107.547 37.811C107.371 56.8045 98.5848 64.4398 81.4595 59.4714V22.0124C81.473 17.4773 73.039 17.22 73.039 21.3897Z" fill="#DE0029"/>
<path fill-rule="evenodd" clip-rule="evenodd" d="M41.1034 79.9541L30.8147 83.4197C24.1541 85.7212 18.4818 80.3196 24.6009 78.0994L29.5692 76.3259L10.8465 70.3829C5.0794 72.3323 -0.335713 76.5019 0.0162692 82.3638C0.368251 88.3069 13.9466 89.7283 24.4114 91.4206C34.1721 93.018 43.0393 92.1245 51.1214 89.2951V83.1761L41.1034 79.9541ZM73.1338 102.86L92.2086 96.1994L72.9578 90.0803V102.413L73.1338 102.86Z" fill="#F3C202"/>
<path fill-rule="evenodd" clip-rule="evenodd" d="M123.887 85.0172L124.239 84.9224C132.578 81.9983 136.125 77.9098 135.245 74.0922C133.824 67.7024 123.616 64.2367 107.912 63.086C96.6488 62.2873 85.5478 64.7782 74.7311 68.5011L72.9577 69.1238L92.3844 75.1617L103.743 71.344C115.629 69.1238 120.421 73.0362 108.982 76.6644L103.296 78.6138L123.887 85.0172ZM51.1213 56.7909L42.5112 59.7151L51.1213 62.382V56.7909Z" fill="#326DB3"/>
<path fill-rule="evenodd" clip-rule="evenodd" d="M92.2085 96.1994L123.887 85.0172L103.296 78.6274L72.9442 89.0109V90.0804L92.2085 96.1994ZM51.1213 76.5832L41.0898 79.9541L51.1213 83.149V76.5832ZM72.9578 81.8223V69.1374L92.3845 75.1753L72.9578 81.8223ZM29.5692 76.326L51.1349 68.6094V62.3956L42.5248 59.7287L11.2932 70.2881C11.1984 70.2881 11.0224 70.3694 10.8464 70.3694L29.5692 76.326Z" fill="#00AA9E"/>
</g>
<defs>
<clipPath id="clip0_25_2">
<rect width="152.52" height="102.86" fill="white"/>
</clipPath>
</defs>
</svg>
