<svg width="120" height="120" viewBox="0 0 120 120" fill="none" xmlns="http://www.w3.org/2000/svg">
<g clip-path="url(#clip0_11_17)">
<path d="M72.5075 65.737L93.0336 53.162C93.0744 53.1259 93.1292 53.1039 93.1882 53.1039C93.3174 53.1039 93.4217 53.2074 93.4217 53.3351C93.4217 53.3459 93.421 53.3566 93.4195 53.3672V53.3659V65.9409C93.418 66.0216 93.3546 66.0875 93.2743 66.0939H72.6316C72.4601 66.0939 72.3748 66.0429 72.3536 65.9919C72.3274 65.8899 72.3748 65.8135 72.5075 65.737ZM68.6725 68.4422H93.2605C93.2634 68.442 93.267 68.4419 93.27 68.4419C93.3305 68.4419 93.3808 68.4861 93.3896 68.5435V70.5955L93.3889 70.6051C93.3889 70.6843 93.4538 70.7484 93.534 70.7484H97.9745C97.9774 70.7487 97.9818 70.7489 97.9855 70.7489C98.065 70.7489 98.1292 70.6851 98.1292 70.6065C98.1292 70.6027 98.1292 70.5989 98.1284 70.595V68.5783C98.1394 68.4928 98.2116 68.4271 98.2999 68.4255H102.705C102.707 68.4257 102.709 68.4257 102.711 68.4257C102.793 68.4257 102.859 68.3598 102.859 68.2787V68.2724V66.2173C102.86 66.2136 102.86 66.2094 102.86 66.2051C102.86 66.1273 102.797 66.0641 102.718 66.0641C102.715 66.0641 102.712 66.0641 102.709 66.0643H98.2955C98.2116 66.0639 98.1423 65.9985 98.1372 65.9161V51.2253C98.1372 50.0235 97.6915 49.2589 96.9372 49.0041H95.6518C95.1586 49.1401 94.7268 49.3315 94.3328 49.5766L94.3533 49.5646L67.8713 65.7665C66.8428 66.4035 66.4872 67.1169 66.7443 67.656C66.95 68.0978 67.5371 68.4289 68.6897 68.4289L68.6725 68.4422ZM0.118304 70.7778H4.61775C4.6814 70.7494 4.72491 70.687 4.72491 70.6146V70.6076V64.1529C4.72491 62.0846 5.90336 60.6577 7.62163 60.6577H26.1464C26.3284 60.6785 26.5394 60.6903 26.753 60.6903C29.8446 60.6903 32.3505 58.2067 32.3505 55.1429C32.3505 55.0153 32.3462 54.8887 32.3377 54.7631L32.3385 54.7801C32.3476 54.6638 32.3528 54.5282 32.3528 54.3914C32.3528 51.5436 30.1227 49.2119 27.299 49.018L27.2819 49.0169H0.0411514L0.0154291 49.0594V51.0768C0.0147871 51.0817 0.0143566 51.0874 0.0143566 51.0929C0.0143566 51.1694 0.0769407 51.231 0.153881 51.231C0.160848 51.231 0.167815 51.2306 0.174672 51.2296H0.173921H24.5864C26.6606 51.2296 27.6376 52.7161 27.6376 54.7672C27.6376 56.8229 26.6648 58.3176 24.5865 58.3176H5.26907C2.33535 58.4297 0 60.8137 0 63.7385C0 63.8829 0.00568289 64.0259 0.0168224 64.1675L0.01575 64.1487V70.5998C0.0152174 70.6043 0.0148965 70.6095 0.0148965 70.6148C0.0148965 70.6888 0.0655824 70.7512 0.134484 70.7693L0.135556 70.7696L0.118304 70.7778ZM52.7317 64.9001V54.7631C52.7317 52.6991 53.7044 51.2212 55.7827 51.2212H68.5953C68.6763 51.2136 68.74 51.149 68.7454 51.0688V49.051L68.7324 49H53.0485C50.2073 49.1993 47.9785 51.5327 47.9785 54.382C47.9785 54.5161 47.9836 54.6489 47.9932 54.7805L47.9921 54.7628V64.8958C47.9921 66.9428 46.9937 68.4249 44.9497 68.4249H31.428C31.3461 68.4249 31.2797 68.4907 31.2797 68.5718V68.5781V70.5952C31.2795 70.5991 31.2793 70.6037 31.2793 70.6084C31.2793 70.6769 31.3193 70.7363 31.3774 70.7645L31.3784 70.7651H46.7367C46.8497 70.7732 46.9815 70.7778 47.1145 70.7778C50.2084 70.7778 52.7166 68.292 52.7166 65.2258C52.7166 65.1052 52.7127 64.9857 52.705 64.867L52.7059 64.8832L52.7317 64.9001Z" fill="#3061C0" stroke="#3061C0" stroke-width="3"/>
</g>
<defs>
<clipPath id="clip0_11_17">
<rect width="120" height="120" fill="white"/>
</clipPath>
</defs>
</svg>
