<svg width="120" height="120" viewBox="0 0 120 120" fill="none" xmlns="http://www.w3.org/2000/svg">
<g clip-path="url(#clip0_11_15)">
<path d="M26.8951 48L27.2245 48.0176C30.6118 48.2796 33.2817 51.0833 33.2817 54.5159C33.2816 58.0583 30.4371 60.9312 26.9029 61.0303L26.9014 61.031H8.88732C7.33428 61.031 6.08525 62.278 6.08525 63.8028V70.1459C6.08525 70.6327 5.68931 71.0176 5.21282 71.0176H0.873137C0.427099 71.0176 0.0504302 70.6802 0.00492001 70.2365L0 70.1459L0.00140265 70.129L0.000704929 63.7874L0.0105377 63.453C0.198419 60.0168 3.06572 57.2975 6.56362 57.2975H24.5834C26.1298 57.2838 27.3672 56.0398 27.3672 54.5201C27.3672 53.0023 26.1333 51.7592 24.5918 51.7419L0.864002 51.7426L0.853465 51.7419C0.387315 51.7287 0.00141704 51.349 0.00140265 50.8667V48.8717C0.00140265 48.3859 0.396349 48 0.873835 48H26.8951ZM65.5905 48C66.0663 48.0001 66.4628 48.3843 66.4629 48.871V50.8667C66.4629 51.3485 66.0767 51.7293 65.6095 51.7419H54.2433C52.6904 51.7421 51.4419 52.9889 51.4419 54.5138V64.4793C51.4419 68.0822 48.4979 70.9917 44.879 70.9917L44.8798 70.9923L31.3724 71.0008C30.8968 71.0007 30.4994 70.6165 30.4994 70.129V68.1341C30.4994 67.6468 30.8963 67.2631 31.3718 67.2631H42.5561C44.1096 67.261 45.3581 66.013 45.3581 64.487V54.5131L45.3665 54.1773C45.543 50.7311 48.4153 48.0001 51.921 48H65.5905ZM102.336 50.8765L102.336 50.8863C102.323 51.3576 101.942 51.7306 101.477 51.7419H75.7855V56.3604C75.7855 56.8721 76.2056 57.2975 76.7371 57.2975H96.2956L96.3143 57.2989C99.9634 57.4948 102.86 60.4782 102.86 64.1449C102.86 67.8104 99.9648 70.7954 96.3309 70.9909H96.3158L96.3007 70.9917L96.2885 70.9923H70.5779C70.1018 70.9923 69.7054 70.6075 69.7054 70.1206V68.1348C69.7054 67.6484 70.1012 67.2631 70.5779 67.2631H93.9601L93.9716 67.2637C93.9975 67.2646 94.0299 67.2645 94.0629 67.2645C95.8087 67.2644 97.2135 65.8626 97.2135 64.1464C97.2135 62.4302 95.8087 61.0283 94.0629 61.0282C94.0227 61.0282 93.9817 61.0288 93.9399 61.0303L93.9407 61.031H93.9328L93.9191 60.6109V61.031H73.9455C71.6093 61.031 69.7048 59.1522 69.7047 56.8213V56.7939L69.7054 56.7847V48.8717C69.7054 48.3838 70.1022 48.0013 70.5758 48H101.46C101.929 48 102.323 48.3726 102.336 48.8514L102.336 48.8612V50.8765Z" fill="#3061C0" stroke="#3061C0" stroke-width="2"/>
</g>
<defs>
<clipPath id="clip0_11_15">
<rect width="120" height="120" fill="white"/>
</clipPath>
</defs>
</svg>
