<svg width="103" height="103" viewBox="0 0 103 103" fill="none" xmlns="http://www.w3.org/2000/svg">
<path d="M60.7543 102.857H76.5C90.9686 102.857 102.857 90.9686 102.857 76.5V26.3571C102.857 11.8929 90.9686 0 76.5 0H60.4286C60.1114 0 59.7857 0.317143 59.7857 0.642858V102.214C59.7814 102.54 60.1072 102.857 60.7543 102.857ZM80.3571 46.29C86.1471 46.29 90.6386 51.1114 90.6386 56.5671C90.6386 62.3614 85.8171 66.8529 80.3571 66.8529C74.5714 66.8529 70.0714 62.3571 70.0714 56.5671C69.75 50.7857 74.5714 46.29 80.3571 46.29ZM48.8571 0H26.3571C11.8929 0 0 11.8929 0 26.3571V76.5C0 90.9686 11.8929 102.857 26.3571 102.857H48.8571C49.1743 102.857 49.5 102.54 49.5 102.219V0.642858C49.5043 0.317143 49.1786 0 48.8571 0ZM41.4686 94.5043H26.3571C23.9917 94.5082 21.6487 94.0453 19.4625 93.1419C17.2764 92.2384 15.29 90.9124 13.6174 89.2397C11.9448 87.567 10.6187 85.5806 9.71529 83.3944C8.8119 81.2083 8.34891 78.8653 8.35286 76.5V26.3571C8.34891 23.9917 8.8119 21.6487 9.71529 19.4625C10.6187 17.2764 11.9448 15.29 13.6174 13.6174C15.29 11.9448 17.2764 10.6187 19.4625 9.71529C21.6487 8.8119 23.9917 8.34891 26.3571 8.35286H41.1429L41.4686 94.5043ZM16.0714 30.8529C16.0714 36.3171 20.25 40.4957 25.7143 40.4957C31.1786 40.4957 35.3571 36.3171 35.3571 30.8529C35.3571 25.3971 31.1786 21.21 25.7143 21.21C20.25 21.21 16.0714 25.3971 16.0714 30.8529Z" fill="#C92C17"/>
</svg>
