<svg width="120" height="120" viewBox="0 0 120 120" fill="currentColor" xmlns="http://www.w3.org/2000/svg">
<path d="M60.7543 111.857H76.5C90.9686 111.857 102.857 99.9686 102.857 85.5V35.3571C102.857 20.8929 90.9686 9 76.5 9H60.4286C60.1114 9 59.7857 9.31714 59.7857 9.64286V111.214C59.7814 111.54 60.1072 111.857 60.7543 111.857ZM80.3571 55.29C86.1471 55.29 90.6386 60.1114 90.6386 65.5671C90.6386 71.3614 85.8171 75.8529 80.3571 75.8529C74.5714 75.8529 70.0714 71.3571 70.0714 65.5671C69.75 59.7857 74.5714 55.29 80.3571 55.29ZM48.8571 9H26.3571C11.8929 9 0 20.8929 0 35.3571V85.5C0 99.9686 11.8929 111.857 26.3571 111.857H48.8571C49.1743 111.857 49.5 111.54 49.5 111.219V9.64286C49.5043 9.31714 49.1786 9 48.8571 9ZM41.4686 103.504H26.3571C23.9917 103.508 21.6487 103.045 19.4625 102.142C17.2764 101.238 15.29 99.9124 13.6174 98.2397C11.9448 96.567 10.6187 94.5806 9.71529 92.3944C8.8119 90.2083 8.34891 87.8653 8.35286 85.5V35.3571C8.34891 32.9917 8.8119 30.6487 9.71529 28.4625C10.6187 26.2764 11.9448 24.29 13.6174 22.6174C15.29 20.9448 17.2764 19.6187 19.4625 18.7153C21.6487 17.8119 23.9917 17.3489 26.3571 17.3529H41.1429L41.4686 103.504ZM16.0714 39.8529C16.0714 45.3171 20.25 49.4957 25.7143 49.4957C31.1786 49.4957 35.3571 45.3171 35.3571 39.8529C35.3571 34.3971 31.1786 30.21 25.7143 30.21C20.25 30.21 16.0714 34.3971 16.0714 39.8529Z" />
</svg>
