<svg width="103" height="103" viewBox="0 0 103 103" fill="none" xmlns="http://www.w3.org/2000/svg">
<path d="M21.7657 49.6634C30.8808 36.2086 39.6514 28.3561 39.6514 28.3561C39.6514 28.3561 29.9854 17.1285 18.3447 12.8808L17.587 12.6971C7.79655 21.258 1.6105 33.2084 0.272993 46.1451C-1.06451 59.0817 2.54572 72.0451 10.3776 82.4279C10.3776 81.4177 10.5154 66.2868 21.7657 49.6634Z" fill="#34701E"/>
<path d="M102.86 51.4314C102.865 44.0934 101.298 36.8394 98.2646 30.1579C95.2309 23.4764 90.8008 17.5226 85.2727 12.6971L84.538 12.9038C72.8973 17.1515 63.2083 28.3791 63.2083 28.3791C63.2083 28.3791 71.9789 36.2316 81.094 49.6864C92.3443 66.3097 92.4821 81.4406 92.4591 82.4509C99.2281 73.5284 102.882 62.631 102.86 51.4314Z" fill="#34701E"/>
<path d="M38.8478 11.2277C45.575 14.2355 51.3838 19.172 51.3838 19.172C51.3838 19.172 57.2386 14.2584 63.9658 11.2277C72.4151 7.4392 78.8668 8.63314 80.5658 9.04643C71.9919 3.15421 61.833 0 51.4298 0C41.0265 0 30.8676 3.15421 22.2937 9.04643C23.9468 8.63314 30.3756 7.41624 38.8478 11.2277Z" fill="#34701E"/>
<path d="M75.0096 59.9037C64.3792 46.8392 51.3839 38.3439 51.3839 38.3439C51.3839 38.3439 38.4575 46.8392 27.8042 59.9037C18.6661 71.1314 15.2681 79.3741 13.4313 84.655L13.1328 85.7571C17.9564 91.1386 23.86 95.4431 30.4587 98.39C37.0574 101.337 44.2031 102.86 51.4298 102.86C58.6566 102.86 65.8023 101.337 72.401 98.39C78.9997 95.4431 84.9033 91.1386 89.7269 85.7571L89.4054 84.655C87.5687 79.3741 84.1476 71.1314 75.0096 59.9037Z" fill="#34701E"/>
</svg>
