<svg width="120" height="120" viewBox="0 0 120 120" fill="currentColor" xmlns="http://www.w3.org/2000/svg">
<path d="M21.7657 58.6634C30.8808 45.2086 39.6514 37.3561 39.6514 37.3561C39.6514 37.3561 29.9854 26.1285 18.3447 21.8808L17.587 21.6971C7.79655 30.258 1.6105 42.2084 0.272993 55.1451C-1.06451 68.0817 2.54572 81.0451 10.3776 91.4279C10.3776 90.4177 10.5154 75.2868 21.7657 58.6634Z" />
<path d="M102.86 60.4314C102.865 53.0934 101.298 45.8394 98.2646 39.1579C95.2309 32.4764 90.8008 26.5225 85.2727 21.6971L84.538 21.9038C72.8973 26.1515 63.2083 37.3791 63.2083 37.3791C63.2083 37.3791 71.9789 45.2316 81.094 58.6864C92.3443 75.3097 92.4821 90.4406 92.4591 91.4509C99.2281 82.5284 102.882 71.631 102.86 60.4314Z" />
<path d="M38.8478 20.2277C45.575 23.2355 51.3838 28.172 51.3838 28.172C51.3838 28.172 57.2386 23.2584 63.9658 20.2277C72.4151 16.4392 78.8668 17.6331 80.5658 18.0464C71.9919 12.1542 61.833 9 51.4298 9C41.0265 9 30.8676 12.1542 22.2937 18.0464C23.9468 17.6331 30.3756 16.4162 38.8478 20.2277Z" />
<path d="M75.0096 68.9038C64.3792 55.8393 51.3839 47.3439 51.3839 47.3439C51.3839 47.3439 38.4575 55.8393 27.8042 68.9038C18.6661 80.1314 15.2681 88.3742 13.4313 93.6551L13.1328 94.7572C17.9564 100.139 23.86 104.443 30.4587 107.39C37.0574 110.337 44.2031 111.86 51.4298 111.86C58.6566 111.86 65.8023 110.337 72.401 107.39C78.9997 104.443 84.9033 100.139 89.7269 94.7572L89.4054 93.6551C87.5687 88.3742 84.1476 80.1314 75.0096 68.9038Z"/>
</svg>
