<svg width="44" height="44" viewBox="0 0 44 44" fill="none" xmlns="http://www.w3.org/2000/svg">
<circle cx="22" cy="22" r="22" fill="#1E1E1E"/>
<path d="M34.5 22.6924H23.25V15.1833C24.7676 14.8783 26.116 14.0293 27.034 12.801C27.952 11.5727 28.374 10.0526 28.2184 8.53528C28.0627 7.018 27.3404 5.61168 26.1914 4.58896C25.0425 3.56625 23.5488 3 22 3C20.4512 3 18.9575 3.56625 17.8086 4.58896C16.6596 5.61168 15.9373 7.018 15.7816 8.53528C15.626 10.0526 16.048 11.5727 16.966 12.801C17.884 14.0293 19.2324 14.8783 20.75 15.1833V22.6924H9.5C8.83696 22.6924 8.20107 22.9518 7.73223 23.4134C7.26339 23.875 7 24.5011 7 25.1539V32.5385C7 33.1913 7.26339 33.8174 7.73223 34.279C8.20107 34.7407 8.83696 35 9.5 35H34.5C35.163 35 35.7989 34.7407 36.2678 34.279C36.7366 33.8174 37 33.1913 37 32.5385V25.1539C37 24.5011 36.7366 23.875 36.2678 23.4134C35.7989 22.9518 35.163 22.6924 34.5 22.6924ZM18.25 9.15407C18.25 8.42381 18.4699 7.70995 18.882 7.10276C19.294 6.49556 19.8797 6.02232 20.5649 5.74286C21.2502 5.4634 22.0042 5.39028 22.7316 5.53275C23.459 5.67521 24.1272 6.02687 24.6517 6.54324C25.1761 7.05962 25.5333 7.71752 25.6779 8.43375C25.8226 9.14998 25.7484 9.89237 25.4645 10.567C25.1807 11.2417 24.7001 11.8184 24.0834 12.2241C23.4667 12.6298 22.7417 12.8463 22 12.8463C21.0054 12.8463 20.0516 12.4573 19.3483 11.7649C18.6451 11.0725 18.25 10.1333 18.25 9.15407ZM34.5 32.5385H9.5V25.1539H34.5V32.5385ZM28.25 17.7694H33.25C33.5815 17.7694 33.8995 17.8991 34.1339 18.1299C34.3683 18.3607 34.5 18.6737 34.5 19.0001C34.5 19.3266 34.3683 19.6396 34.1339 19.8704C33.8995 20.1012 33.5815 20.2309 33.25 20.2309H28.25C27.9185 20.2309 27.6005 20.1012 27.3661 19.8704C27.1317 19.6396 27 19.3266 27 19.0001C27 18.6737 27.1317 18.3607 27.3661 18.1299C27.6005 17.8991 27.9185 17.7694 28.25 17.7694Z" fill="#2FA98C"/>
</svg>
