<svg width="120" height="120" viewBox="0 0 120 120" fill="currentColor" xmlns="http://www.w3.org/2000/svg">
<path d="M99.4589 26.673C98.9853 25.5766 98.2004 24.6439 97.2019 23.9908C96.2034 23.3378 95.0353 22.9932 93.8429 23.0001H26.1425C24.9513 23.0025 23.7864 23.3511 22.7891 24.0037C21.7918 24.6564 21.0049 25.585 20.524 26.6768C20.043 27.7687 19.8886 28.977 20.0796 30.155C20.2705 31.3331 20.7985 32.4303 21.5996 33.3136L21.6304 33.3483L47.6835 61.2211V90.832C47.6832 91.9481 47.9853 93.0433 48.5574 94.0009C49.1296 94.9584 49.9504 95.7425 50.9323 96.2694C51.9142 96.7964 53.0205 97.0464 54.1331 96.9929C55.2457 96.9394 56.323 96.5844 57.25 95.9657L69.5592 87.741C70.403 87.1779 71.0949 86.4146 71.5734 85.519C72.0518 84.6234 72.3021 83.6232 72.3018 82.6074V61.2211L98.3588 33.3483L98.3896 33.3136C99.1991 32.4344 99.7322 31.3357 99.9224 30.1547C100.113 28.9737 99.9514 27.7628 99.4589 26.673ZM66.9858 57.9104C66.4535 58.4759 66.154 59.222 66.1472 59.9993V82.6074L53.8381 90.832V59.9993C53.8383 59.2164 53.5413 58.4627 53.0072 57.8911L26.1425 29.1666H93.8429L66.9858 57.9104Z"/>
</svg>
