<svg width="26" height="26" viewBox="0 0 26 26" fill="currentColor" xmlns="http://www.w3.org/2000/svg">
<path d="M12.999 0.5C16.3133 0.5035 19.4914 1.8215 21.835 4.16504C24.1053 6.4354 25.4134 9.4886 25.4961 12.6904L25.5 13.001C25.4998 15.4728 24.7668 17.8891 23.3936 19.9443C22.02 22 20.0673 23.6027 17.7832 24.5488C15.4993 25.4948 12.9861 25.742 10.5615 25.2598C8.13676 24.7775 5.90929 23.587 4.16113 21.8389C2.41298 20.0907 1.22255 17.8632 0.740234 15.4385C0.257985 13.0139 0.505235 10.5007 1.45117 8.2168C2.39727 5.93272 4.00005 3.97996 6.05566 2.60645C8.11095 1.23323 10.5272 0.500194 12.999 0.5Z" />
</svg>
